<svg width="241.9" height="241.9" version="1.1" viewBox="0 0 241.9 241.9" xmlns="http://www.w3.org/2000/svg"><path fill="currentColor" d="m200.18 102.05 0.8 0.8c12.6 12.9 25.2 25.8 37.8 38.6 0.9 0.9 1.1 1.8 0.9 3-7.1 33.4-25 59.5-53.5 78.3-0.3 0.2-0.7 0.4-1.1 0.6h-0.3c5.1-40.3 10.2-80.7 15.4-121.3z"/><path fill="currentColor" d="m18.678 56.35c13 38.7 26 77.2 39 116-0.6-0.1-0.9-0.2-1.2-0.3-17-6.1-33.9-12.3-50.9-18.4-0.9-0.3-1.3-0.8-1.6-1.8-1.6-6.2-2.7-12.4-3.3-18.7-0.7-6.5-0.9-13.1-0.4-19.6 1.3-20.4 7.3-39.3 18.2-56.7-0.1-0.1 0-0.2 0.2-0.5z"/><path fill="currentColor" d="m241.18 134.85c-28.6-29.3-57-58.4-85.6-87.6 1.6-0.2 3.1-0.4 4.6-0.6 6.4-0.7 12.8-1.3 19.2-2 6-0.6 12.1-1.2 18.1-1.8 4.4-0.5 8.9-0.9 13.3-1.4 1.1-0.1 1.7 0.2 2.4 1 13.3 15.8 22.1 33.8 26.3 54 1.3 6.5 2 13 2.4 19.6 0.2 6.2-0.2 12.2-0.7 18.8z"/><path fill="currentColor" d="m84.778 47.85c3.2-5 6.2-9.7 9.2-14.3 7-10.8 13.9-21.6 20.8-32.4 0.5-0.8 1-1.1 2-1.1 28.4-0.9 54 7.2 76.8 24.1 4.3 3.2 8.1 6.9 12.1 10.4 0.2 0.2 0.4 0.5 0.9 0.9-40.7 4.2-81.1 8.3-121.8 12.4z"/><path fill="currentColor" d="m121.78 202.45-1.2 0.8c-15.3 9.4-30.6 18.8-45.9 28.2-0.9 0.6-1.6 0.6-2.6 0.2-31.1-14.3-52.7-37.4-64.9-69.4-0.1-0.3-0.2-0.7-0.4-1.3 38.4 13.8 76.5 27.6 115 41.5z"/><path fill="currentColor" d="m107.38 0.8502c-22 34.1-44 68.2-66.1 102.5-0.5-1.6-1-2.9-1.5-4.3-5.4-16.1-10.8-32.1-16.2-48.2-0.3-1-0.2-1.7 0.4-2.4 18-23.5 41.4-38.8 70.2-45.5 4.3-1 8.7-1.6 13-2.4 0.1 0.1 0.2 0.2 0.2 0.3z"/><path fill="currentColor" d="m184.88 171.35c-0.8 6.7-1.6 13.2-2.4 19.6-0.7 5.6-1.4 11.1-2.1 16.7s-1.4 11.1-2 16.7c-0.1 0.7-0.2 1.5-0.3 2.2-0.1 0.9-0.4 1.5-1.3 1.9-10.5 5.4-21.6 9.2-33.2 11.4-7.6 1.4-15.3 2.2-23 2.1-13-0.1-25.8-2.1-38.1-6.3-0.4-0.1-0.7-0.3-1.4-0.5 34.6-21.4 69.1-42.6 103.8-63.8z"/></svg>
