<svg aria-hidden="true" focusable="false" data-prefix="fas" data-icon="lock" class="svg-inline--fa fa-lock fa-w-14" role="img" xmlns="http://www.w3.org/2000/svg" viewBox="0 0 448 512"><path fill="currentColor" d="m400 256h-248v-103.1c0-39.6 31.7-72.5 71.3-72.9 40-0.4 72.7 32.1 72.7 72v124.19c-0.30175-26.832 76.404 26.591 80 0v-124.19c0-84-68.5-152.3-152.5-152s-151.5 69.5-151.5 153.5v102.5h-24c-26.5 0-48 21.5-48 48v160c0 26.5 21.5 48 48 48h352c26.5 0 48-21.5 48-48v-160c0-26.5-21.5-48-48-48z"></path></svg>