<svg class="svg-inline--fa fa-lock fa-w-14" width="517.16" height="581.09" aria-hidden="true" data-icon="lock" data-prefix="fas" focusable="false" role="img" version="1.1" viewBox="0 0 517.16 581.09" xmlns="http://www.w3.org/2000/svg"><path d="m255.87 0.51057c-12.075 0.1757-24.271 1.5939-36.139 4.1663-2.4358 0.53402-4.882 1.1107-7.3418 1.7478-3.84 1.0046-7.8346 2.1673-11.67 3.4429-7.6553 2.5246-15.251 5.5901-22.562 9.1212-2.258 1.0883-4.464 2.2139-6.6424 3.3675-1.7178 0.92508-3.6046 1.9598-5.3595 2.9784-32.927 19.001-59.628 48.416-75.801 82.784-1.9147 4.0579-3.7083 8.2639-5.2717 12.341-4.2775 11.109-7.4513 22.639-9.5342 34.358-1.3559 7.6821-2.2606 15.613-2.7059 23.466-0.33522 5.9155-0.42941 11.813-0.2867 17.764 0.03007 20.353 0.0083 40.707 0.01799 61.061-6.0799 0.80204-12.098 2.1568-17.855 4.2874-18.573 6.7381-34.589 20.35-44.062 37.707-0.68686 1.2515-1.3339 2.5197-1.9177 3.7272-5.1429 10.588-7.8122 22.3-8.1681 34.047-0.18964 4.7727 0.06671 9.547-0.0053 14.321 0.02826 50.62-0.0051 101.24 0.15591 151.86 0.26919 5.4717 1.1348 10.911 2.5414 16.205 0.11855 0.43959 0.30065 1.118 0.44118 1.5874 1.6062 5.6078 3.8303 11.035 6.5764 16.18 0.54615 1.0216 1.24 2.2546 1.8828 3.3359 7.3998 12.462 18.08 23.019 30.85 29.926 13.833 7.6488 29.873 10.954 45.613 10.183 116.67-0.0162 233.33-0.0376 350-0.0987 1.8169-0.0833 3.4585-0.2113 5.2798-0.41872 2.7356-0.30605 5.6246-0.80241 8.2024-1.377 8.1615-1.8198 16.035-4.9044 23.283-9.0703 1.1351-0.65215 2.461-1.4524 3.6387-2.2148 10.951-7.0276 20.245-16.668 26.651-28.01 5.6782-9.8589 9.1424-20.936 10.42-32.226 0.0379-0.42968 0.13612-1.2879 0.17539-1.7266 0.141-1.4766 0.23881-3.1398 0.30508-4.5058 0.20237-4.1195-0.10543-8.2382-0.0258-12.359-0.0181-51.546 0.0381-103.09-0.13809-154.64-0.31713-6.2468-1.4077-12.45-3.1935-18.443-0.13465-0.44538-0.32809-1.095-0.48223-1.5564-0.68267-2.1707-1.597-4.6242-2.4748-6.7228-4.3877-10.484-10.916-20.075-19.111-27.953-0.78068-0.75423-1.7724-1.6633-2.6629-2.4488-11.857-10.413-26.838-17.121-42.433-19.381-0.43881-0.22757-1.5285 0.10055-1.488-0.53622-0.0438-26.686 0.0909-53.374-0.27664-80.058-0.91683-18.272-4.6834-36.567-10.988-53.813-0.76203-2.075-1.5176-4.0665-2.324-6.0412-1.1971-2.9726-2.4697-5.8804-3.7807-8.7158-2.951-6.3524-6.2626-12.536-9.9043-18.52-5.2297-8.5669-11.255-16.872-17.888-24.503-2.0044-2.3213-4.2597-4.7794-6.3932-6.9851-3.3755-3.5016-6.9048-6.9507-10.508-10.165-2.3552-2.1108-4.6727-4.0803-7.1615-6.0962-6.9718-5.6414-14.44-10.827-22.092-15.381-2.7924-1.6529-5.6468-3.2585-8.5867-4.8019-13.914-7.321-29.005-12.974-44.45-16.482-8.4029-1.9196-16.937-3.2634-25.524-4.0153-1.3514-0.1055-2.9406-0.24368-4.3858-0.32561-1.8004-0.11597-3.5091-0.20279-5.258-0.26282-3.0592-0.11423-6.1213-0.14417-9.1823-0.1147zm2.9609 147.97c13.796 0.0379 27.266 8.2568 33.461 20.609 3.1488 5.997 4.5299 12.842 4.275 19.593-0.0155 22.601 0.016 45.201 6e-3 67.802h-75.998c0.0384-24.252-0.0535-48.506 0.20899-72.756 1.2336-14.012 10.607-27.102 23.693-32.406 4.5369-1.8794 9.4455-2.8368 14.354-2.8421z" stroke-opacity="0"/><path d="m434.57 290.49h-248v-103.1c0-39.6 31.7-72.5 71.3-72.9 40-0.4 72.7 32.1 72.7 72v124.19c-0.30175-26.832 76.404 26.591 80 0v-124.19c0-84-68.5-152.3-152.5-152-84 0.3-151.5 69.5-151.5 153.5v102.5h-24c-26.5 0-48 21.5-48 48v160c0 26.5 21.5 48 48 48h352c26.5 0 48-21.5 48-48v-160c0-26.5-21.5-48-48-48z" fill="#fff"/></svg>
