<?xml version="1.0" standalone="no"?>
<!DOCTYPE svg PUBLIC "-//W3C//DTD SVG 20010904//EN"
 "http://www.w3.org/TR/2001/REC-SVG-20010904/DTD/svg10.dtd">
<svg version="1.0" xmlns="http://www.w3.org/2000/svg"
 width="984.000000pt" height="984.000000pt" viewBox="0 0 984.000000 984.000000"
 preserveAspectRatio="xMidYMid meet">
<metadata>
Created by potrace 1.11, written by Peter Selinger 2001-2013
</metadata>
<g transform="translate(0.000000,984.000000) scale(0.100000,-0.100000)"
fill="#000000" stroke="none">
<path d="M4072 8863 c-347 -538 -629 -979 -628 -981 4 -3 4950 500 4955 505 8
6 -118 129 -244 238 -176 153 -319 262 -510 389 -215 143 -338 214 -562 324
-679 334 -1413 502 -2199 502 l-182 0 -630 -977z"/>
<path d="M4210 9789 c-950 -143 -1799 -534 -2527 -1165 -226 -196 -570 -568
-709 -765 l-30 -44 367 -1090 c202 -599 369 -1093 371 -1097 2 -6 2686 4148
2696 4174 5 11 -24 9 -168 -13z"/>
<path d="M7427 8035 c-604 -62 -1101 -115 -1103 -118 -2 -2 780 -807 1738
-1788 l1743 -1783 7 50 c13 98 28 371 28 525 0 408 -56 846 -160 1244 -180
692 -503 1320 -975 1898 l-70 86 -55 -1 c-30 0 -549 -51 -1153 -113z"/>
<path d="M739 7514 c-52 -79 -148 -253 -223 -403 -506 -1011 -645 -2180 -391
-3296 14 -60 32 -132 40 -160 l14 -50 1087 -393 c598 -216 1088 -391 1090
-389 3 3 -1556 4642 -1579 4698 l-13 32 -25 -39z"/>
<path d="M8130 5695 c0 -6 -75 -597 -165 -1315 -338 -2675 -456 -3615 -453
-3629 2 -10 51 18 153 87 286 193 523 391 771 645 446 456 785 967 1029 1552
113 272 219 617 275 894 l21 105 -124 125 c-112 114 -1411 1445 -1478 1516
-16 16 -29 25 -29 20z"/>
<path d="M305 3212 c87 -236 223 -524 348 -742 313 -545 751 -1047 1262 -1445
133 -104 410 -290 560 -376 139 -79 484 -249 507 -249 24 0 1980 1202 1970
1211 -7 6 -4623 1676 -4662 1686 -17 4 -15 -4 15 -85z"/>
<path d="M5402 1582 c-1162 -713 -2112 -1300 -2112 -1303 0 -4 8 -9 18 -12 9
-3 100 -30 202 -60 303 -90 591 -148 920 -184 220 -24 763 -24 985 1 602 66
1128 216 1648 468 124 61 169 87 172 102 9 43 286 2279 282 2282 -2 2 -953
-580 -2115 -1294z"/>
</g>
</svg>
